<?xml version="1.0" standalone="no"?>
<!DOCTYPE svg PUBLIC "-//W3C//DTD SVG 20010904//EN"
 "http://www.w3.org/TR/2001/REC-SVG-20010904/DTD/svg10.dtd">
<svg version="1.0" xmlns="http://www.w3.org/2000/svg"
 width="830.000000pt" height="830.000000pt" viewBox="0 0 830.000000 830.000000"
 preserveAspectRatio="xMidYMid meet">
<metadata>
Created by potrace 1.14, written by Peter Selinger 2001-2017
</metadata>
<g transform="translate(0.000000,830.000000) scale(0.100000,-0.100000)"
fill="#000000" stroke="none">
<path d="M2573 8290 c-12 -5 -55 -42 -96 -82 l-75 -73 3 -130 c3 -148 13 -280
31 -425 3 -25 7 -65 10 -89 3 -38 10 -92 29 -236 2 -16 7 -57 11 -90 3 -33 8
-69 10 -80 2 -11 9 -58 14 -105 5 -47 12 -94 14 -105 2 -11 9 -69 16 -130 l13
-110 410 -820 410 -820 0 -850 0 -850 -67 -175 c-36 -96 -70 -184 -76 -195 -5
-11 -41 -105 -80 -210 -40 -104 -78 -203 -85 -220 -7 -16 -25 -64 -40 -105
-15 -41 -36 -95 -45 -120 -27 -66 -163 -431 -230 -615 -167 -460 -305 -835
-350 -955 -81 -214 -81 -216 -87 -355 l-5 -130 107 -108 106 -108 124 2 c142
1 163 8 260 87 53 42 63 57 97 137 75 181 310 795 392 1025 24 69 74 208 111
310 38 102 82 226 100 275 96 265 375 1004 404 1070 96 218 147 263 209 183
26 -33 180 -417 374 -933 93 -248 126 -337 223 -610 94 -264 223 -617 245
-670 4 -11 45 -117 90 -235 45 -118 108 -283 141 -365 l59 -150 78 -52 c42
-29 88 -56 102 -62 14 -5 81 -10 150 -10 l124 -2 98 98 99 98 -2 125 c-1 70
-7 148 -15 179 -18 67 -198 550 -249 666 -29 66 -164 414 -183 470 -31 95
-263 708 -362 960 -205 517 -235 603 -255 745 -4 25 -9 403 -11 841 l-4 795
148 295 c82 162 273 539 424 839 152 300 276 548 276 553 0 11 14 130 17 149
2 9 7 49 10 90 4 40 8 75 10 78 2 3 6 35 10 70 3 36 8 72 10 80 2 8 7 44 10
80 4 36 8 72 10 80 2 8 6 44 9 80 4 36 8 75 10 85 2 11 7 47 10 80 4 33 11 98
17 145 24 219 31 294 31 373 l0 68 -81 80 c-85 85 -112 99 -194 99 -63 0 -99
-17 -179 -84 -78 -65 -93 -90 -102 -166 -4 -30 -9 -75 -11 -100 -3 -25 -10
-79 -15 -120 -5 -41 -12 -100 -15 -130 -8 -83 -16 -151 -20 -190 -3 -19 -7
-60 -10 -90 -3 -30 -8 -73 -10 -95 -7 -61 -14 -124 -20 -185 -4 -30 -8 -66
-10 -80 -2 -14 -6 -56 -10 -93 -3 -37 -8 -76 -10 -85 -1 -9 -120 -254 -264
-545 l-260 -527 -557 2 c-483 3 -558 5 -565 18 -72 132 -498 1005 -502 1030
-4 19 -9 58 -12 85 -3 28 -8 64 -10 80 -2 17 -7 62 -10 100 -4 39 -8 77 -10
85 -2 8 -7 49 -10 90 -4 41 -8 82 -10 90 -1 8 -6 44 -10 80 -3 36 -8 76 -10
90 -2 14 -7 50 -10 80 -3 30 -10 89 -15 130 -5 41 -12 102 -16 135 -3 33 -7
62 -9 65 -2 3 -6 32 -10 65 -12 110 -16 119 -85 176 -35 29 -79 61 -96 70 -36
18 -156 24 -191 9z"/>
<path d="M4045 7574 c-11 -3 -92 -41 -181 -85 l-160 -81 -47 -86 c-25 -48 -63
-121 -84 -162 l-38 -75 0 -130 c0 -143 0 -142 93 -310 78 -142 91 -160 129
-180 21 -11 84 -46 141 -77 l104 -58 167 -1 167 -1 110 66 c60 36 126 80 146
98 21 18 71 86 113 152 l75 119 0 194 0 193 -75 114 c-90 137 -117 164 -209
213 -167 89 -191 96 -316 99 -63 2 -124 1 -135 -2z"/>
</g>
</svg>
